<svg width="20" height="14" viewBox="0 0 20 14" fill="none" xmlns="http://www.w3.org/2000/svg">
<g clip-path="url(#clip0_4_132)">
<path d="M12.75 0.49429C12.5808 0.666354 12.486 0.897992 12.486 1.13929C12.486 1.38059 12.5808 1.61223 12.75 1.78429L17 6.06429H0.900002C0.771807 6.05087 0.642223 6.06454 0.519648 6.10441C0.397074 6.14428 0.284244 6.20946 0.188474 6.29572C0.092704 6.38199 0.01613 6.48742 -0.0362844 6.60518C-0.0886987 6.72294 -0.115784 6.85039 -0.115784 6.97929C-0.115784 7.10819 -0.0886987 7.23564 -0.0362844 7.3534C0.01613 7.47116 0.092704 7.57659 0.188474 7.66286C0.284244 7.74912 0.397074 7.8143 0.519648 7.85417C0.642223 7.89404 0.771807 7.90771 0.900002 7.89429H17L12.74 12.2343C12.5732 12.4076 12.48 12.6388 12.48 12.8793C12.48 13.1198 12.5732 13.351 12.74 13.5243C12.8227 13.6071 12.9209 13.6729 13.029 13.7177C13.1371 13.7626 13.253 13.7856 13.37 13.7856C13.487 13.7856 13.6029 13.7626 13.711 13.7177C13.8191 13.6729 13.9173 13.6071 14 13.5243L19.74 7.63429C19.818 7.54807 19.8821 7.45023 19.93 7.34429C19.9781 7.23399 20.002 7.11462 20 6.99429C20.0009 6.87575 19.9785 6.75818 19.9339 6.64835C19.8892 6.53852 19.8234 6.43859 19.74 6.35429L14 0.51429C13.8414 0.351964 13.6267 0.256379 13.3999 0.247085C13.1732 0.237791 12.9514 0.31549 12.78 0.46429L12.75 0.49429Z" fill="black"/>
</g>
<defs>
<clipPath id="clip0_4_132">
<rect width="20" height="13.5" fill="white" transform="translate(0 0.234375)"/>
</clipPath>
</defs>
</svg>
