<svg width="13" height="8" viewBox="0 0 13 8" fill="none" xmlns="http://www.w3.org/2000/svg">
<g clip-path="url(#clip0_4_324)">
<path d="M6.04689 5.36002L10.5869 0.82002C10.7479 0.660634 10.9653 0.571228 11.1919 0.571228C11.4185 0.571228 11.6359 0.660634 11.7969 0.82002C11.9546 0.983957 12.0426 1.20257 12.0426 1.43002C12.0426 1.65747 11.9546 1.87608 11.7969 2.04002L6.65689 7.18002C6.49847 7.33278 6.28697 7.41814 6.06689 7.41814C5.84681 7.41814 5.63531 7.33278 5.47689 7.18002L0.29689 2.04002C0.216767 1.96095 0.153149 1.86675 0.109727 1.76289C0.0663052 1.65904 0.0439453 1.54759 0.0439453 1.43502C0.0439453 1.32245 0.0663052 1.211 0.109727 1.10715C0.153149 1.00329 0.216767 0.909091 0.29689 0.83002C0.375961 0.749898 0.470158 0.686279 0.574016 0.642857C0.677873 0.599435 0.789321 0.577075 0.90189 0.577075C1.01446 0.577075 1.12591 0.599435 1.22976 0.642857C1.33362 0.686279 1.42782 0.749898 1.50689 0.83002L6.04689 5.36002Z" fill="black"/>
</g>
<defs>
<clipPath id="clip0_4_324">
<rect width="12" height="6.86" fill="white" transform="translate(0.046875 0.570007)"/>
</clipPath>
</defs>
</svg>
