<svg width="64" height="65" viewBox="0 0 64 65" fill="none" xmlns="http://www.w3.org/2000/svg">
<g clip-path="url(#clip0_4_310)">
<path d="M45.5575 34.3669V53.7798C45.5575 54.793 44.457 56.7739 43.7664 57.4786C40.4236 60.8926 35.2617 58.5529 34.7677 53.46C34.4694 50.387 34.5052 41.1444 35.3846 38.4507C36.6001 34.7242 39.6243 32.5651 42.807 31.6105C41.7459 27.6114 38.4501 25.3441 34.9185 25.0478C29.6654 24.6067 22.8303 24.7801 21.2182 31.7912C24.4761 32.3486 27.5943 35.031 28.6927 38.6875C29.5292 41.4724 29.492 49.9817 29.2471 53.1515C28.8695 58.041 24.4459 60.7258 20.8435 58.0605C19.8799 57.3476 18.4474 55.0811 18.4474 53.7806V34.3677H7.52075C5.73671 34.3677 2.8845 38.0966 2.52517 40.1247C1.40085 46.4717 3.0761 56.31 2.40797 63.0916C2.17496 65.4598 0.406364 65.472 0.176868 63.4212C1.1124 55.9364 -1.9258 41.2787 2.39674 35.4827C6.63786 29.7965 12.8595 32.404 18.5415 31.748C19.4623 30.3857 19.8244 28.6986 20.7915 27.2989C24.3828 22.1002 30.4528 22.3573 35.7488 22.8017C38.7309 23.0515 41.6876 24.8631 43.464 27.6496C43.9917 28.4781 45.0571 31.5869 45.4634 31.748C51.3047 32.3861 57.8752 29.7086 61.9928 35.9986C65.7244 41.6986 62.9332 56.2514 63.8274 63.4204C62.6357 66.556 61.7114 64.4295 61.6012 62.1451C61.284 55.5938 62.4104 46.4432 61.5359 40.3786C61.2285 38.2464 58.3468 34.3661 56.4842 34.3661H45.5575V34.3669ZM20.6603 34.3669V54.1005C20.6603 55.4343 23.2606 56.9252 24.4684 56.6192C26.5949 56.0813 27.0644 54.072 27.1423 51.8527C27.2357 49.2143 27.2806 40.9939 26.5205 38.9601C25.5373 36.329 23.1735 34.2945 20.6603 34.3669ZM43.3439 34.3669C40.7697 34.266 38.3322 36.4926 37.3974 39.1815C36.7201 41.1314 36.7868 49.2924 36.8605 51.8535C36.9258 54.1119 37.3328 56.0618 39.5351 56.6192C40.743 56.9244 43.3432 55.4343 43.3432 54.1005V34.3669H43.3439Z" fill="#FFC547"/>
<path d="M30.829 0.118811C41.6483 -1.67811 43.5889 17.5012 33.2173 18.9295C22.1418 20.4546 20.5171 1.83109 30.829 0.118811ZM30.5469 2.67747C23.756 4.0333 24.7519 17.1423 32.3786 16.6988C40.3787 16.2341 39.891 0.812188 30.5469 2.67747Z" fill="#FFC547"/>
<path d="M12.2896 8.77382C24.448 6.55778 25.2109 27.0978 14.4239 27.6325C3.89864 28.1542 3.01855 10.4633 12.2896 8.77382ZM9.6943 12.9829C4.02848 19.5627 12.3584 29.4539 18.1843 23.3119C24.1084 17.0659 15.4233 6.33073 9.6943 12.9829Z" fill="#FFC547"/>
<path d="M48.5339 8.78113C60.4074 6.76204 61.5022 27.0677 50.386 27.6333C40.3043 28.146 38.8284 10.4316 48.5339 8.78113ZM54.3106 12.9829C48.6483 6.46255 39.9022 16.794 45.8249 23.3071C51.4507 29.4945 60.067 19.6107 54.3106 12.9829Z" fill="#FFC547"/>
</g>
<defs>
<clipPath id="clip0_4_310">
<rect width="64" height="65" fill="white"/>
</clipPath>
</defs>
</svg>
