<svg width="39" height="43" viewBox="0 0 39 43" fill="none" xmlns="http://www.w3.org/2000/svg">
<path d="M5.34128 2.58008C4.04987 2.58008 3.06128 3.69875 3.06128 5.16008V22.3601C3.06128 23.8214 4.04987 24.9401 5.34128 24.9401H5.65003L6.86128 23.2201H5.34128C4.88409 23.2201 4.58128 22.8774 4.58128 22.3601V5.16008C4.58128 4.64273 4.88409 4.30008 5.34128 4.30008H20.5413C20.9985 4.30008 21.3013 4.64273 21.3013 5.16008V18.0601H19.0213C17.7299 18.0601 16.7413 19.1788 16.7413 20.6401V23.2201H12.9413L14.1525 24.9401H16.7413V27.8695L18.2613 29.3207V20.6401C18.2613 20.1227 18.5641 19.7801 19.0213 19.7801H34.2213C34.6785 19.7801 34.9813 20.1227 34.9813 20.6401V37.8401C34.9813 38.3574 34.6785 38.7001 34.2213 38.7001H19.0213C18.5641 38.7001 18.2613 38.3574 18.2613 37.8401V36.1201L16.7413 37.5713V37.8401C16.7413 39.3014 17.7299 40.4201 19.0213 40.4201H34.2213C35.5127 40.4201 36.5013 39.3014 36.5013 37.8401V20.6401C36.5013 19.1788 35.5127 18.0601 34.2213 18.0601H22.8213V5.16008C22.8213 3.69875 21.8327 2.58008 20.5413 2.58008H5.34128ZM12.9413 6.88008V8.60008H6.86128V10.3201H15.91C15.6755 12.2349 14.6839 13.8071 13.44 15.077C11.5341 13.1856 10.5663 11.207 10.5663 11.207L9.23628 12.0132C9.23628 12.0132 10.2308 14.0859 12.2288 16.152C12.1783 16.1923 12.1367 16.246 12.0863 16.2863C10.0794 17.8518 8.07253 18.6245 8.07253 18.6245L8.54753 20.2638C8.54753 20.2638 10.7563 19.4341 12.965 17.7107C13.1224 17.5864 13.2827 17.442 13.44 17.3076C14.3069 18.0332 15.3163 18.6984 16.4563 19.2157L17.0263 17.6032C16.1535 17.2102 15.3727 16.6995 14.675 16.152C16.0644 14.6637 17.2252 12.722 17.4538 10.3201H19.7813V8.60008H14.4613V6.88008H12.9413ZM9.90128 21.5001L6.10128 26.6601H8.38128V30.1001H11.4213V26.6601H13.7013L9.90128 21.5001ZM25.8613 22.7095L21.9188 34.5613H23.8188L24.65 31.8201H28.6638L29.5188 34.5613H31.4188L27.4525 22.7095H25.8613ZM26.6213 25.2895L28.1413 30.1807H25.1013L26.6213 25.2895ZM15.2213 28.3801V30.9601H8.38128L11.4213 34.4001H15.2213V36.9801L19.7813 32.6801L15.2213 28.3801Z" fill="white"/>
</svg>
